<?xml version="1.0" encoding="UTF-8"?>
<!DOCTYPE svg PUBLIC "-//W3C//DTD SVG 1.1//EN" "http://www.w3.org/Graphics/SVG/1.1/DTD/svg11.dtd">
<!-- Creator: CorelDRAW 2019 (64-Bit) -->
<svg xmlns="http://www.w3.org/2000/svg" xml:space="preserve" width="3464px" height="1080px" version="1.1" style="shape-rendering:geometricPrecision; text-rendering:geometricPrecision; image-rendering:optimizeQuality; fill-rule:evenodd; clip-rule:evenodd"
    viewBox="0 0 3464 1079.87"
    xmlns:xlink="http://www.w3.org/1999/xlink"
    xmlns:xodm="http://www.corel.com/coreldraw/odm/2003">
    <defs>
        <style type="text/css">
            <![CDATA[
    .fil1 {fill:#FEFEFE}
    .fil0 {fill:#001244}
    .fil2 {fill:#C58E10}
   ]]>
        </style>
    </defs>
    <g id="Layer_x0020_1">
        <metadata id="CorelCorpID_0Corel-Layer" />
        <polygon class="fil0" points="0,0 3464,0 3464,1079.87 0,1079.87 " />
        <path class="fil1" d="M190.55 465.68l0 -275.13 78.21 0c23.78,0 42.59,5.83 56.54,17.42 13.95,11.66 20.89,26.8 20.89,45.47 0,15.59 -4.19,29.15 -12.64,40.68 -8.45,11.53 -20.11,19.71 -34.91,24.56l0 0.79c18.53,2.16 33.41,9.17 44.61,20.96 11.13,11.86 16.7,27.25 16.7,46.18 0,23.52 -8.45,42.58 -25.35,57.19 -16.84,14.61 -38.13,21.88 -63.87,21.88l-80.18 0zm32.23 -246.05l0 88.83 32.95 0c17.62,0 31.44,-4.26 41.53,-12.77 10.09,-8.52 15.13,-20.5 15.13,-35.97 0,-26.72 -17.55,-40.09 -52.67,-40.09l-36.94 0zm0 117.92l0 99.04 43.76 0c18.86,0 33.54,-4.45 43.95,-13.43 10.42,-8.97 15.66,-21.22 15.66,-36.88 0,-32.49 -22.14,-48.73 -66.36,-48.73l-37.01 0zm406.08 128.13l-35.77 0 -29.02 -77.04 -116.8 0 -27.51 77.04 -35.77 0 105.53 -275.13 33.41 0 105.93 275.13zm-75.27 -106.12l-43.1 -117.39c-1.44,-3.8 -2.95,-9.89 -4.46,-18.21l-0.85 0c-1.31,7.73 -2.82,13.89 -4.52,18.47l-42.78 117.13 95.71 0zm337.43 106.12l-39.44 0 -141.56 -219.32c-3.6,-5.5 -6.55,-11.27 -8.84,-17.23l-1.12 0c0.99,5.83 1.51,18.48 1.51,37.8l0 198.75 -32.23 0 0 -275.13 41.73 0 137.76 215.85c5.76,8.97 9.43,15.06 11.14,18.4l0.72 0c-1.25,-7.92 -1.9,-21.42 -1.9,-40.48l0 -193.77 32.23 0 0 275.13zm263.73 0l-44.81 0 -106.32 -125.84c-3.93,-4.78 -6.42,-7.93 -7.27,-9.63l-0.79 0 0 135.47 -32.23 0 0 -275.13 32.23 0 0 129.31 0.79 0c1.77,-2.82 4.19,-5.96 7.27,-9.37l102.78 -119.94 40.09 0 -118.04 132 126.3 143.13z" />
        <path class="fil1" d="M1197.4 450.48l0 -60.82c11.05,9.23 23.07,16.12 36.06,20.73 12.93,4.61 26.06,6.95 39.24,6.95 7.74,0 14.56,-0.71 20.34,-2.08 5.78,-1.43 10.59,-3.31 14.42,-5.84 3.9,-2.47 6.82,-5.4 8.71,-8.71 1.88,-3.38 2.86,-7.02 2.86,-10.98 0,-5.33 -1.5,-10.07 -4.55,-14.23 -3.05,-4.22 -7.21,-8.05 -12.54,-11.63 -5.26,-3.57 -11.5,-7.01 -18.78,-10.26 -7.21,-3.32 -15.07,-6.7 -23.45,-10.14 -21.31,-8.83 -37.23,-19.68 -47.75,-32.48 -10.46,-12.87 -15.73,-28.33 -15.73,-46.46 0,-14.23 2.86,-26.44 8.58,-36.64 5.72,-10.2 13.51,-18.65 23.32,-25.21 9.82,-6.62 21.25,-11.43 34.18,-14.55 12.99,-3.12 26.7,-4.68 41.13,-4.68 14.22,0 26.83,0.85 37.81,2.6 10.98,1.69 21.11,4.35 30.4,7.93l0 56.91c-4.55,-3.18 -9.55,-5.98 -14.94,-8.38 -5.39,-2.47 -10.98,-4.48 -16.7,-6.04 -5.72,-1.63 -11.37,-2.8 -17.02,-3.51 -5.65,-0.78 -11.04,-1.17 -16.11,-1.17 -7.02,0 -13.32,0.65 -19.04,2.01 -5.71,1.3 -10.59,3.19 -14.49,5.59 -3.96,2.41 -7.01,5.33 -9.16,8.64 -2.14,3.38 -3.25,7.15 -3.25,11.37 0,4.55 1.24,8.64 3.64,12.28 2.41,3.57 5.85,7.02 10.27,10.27 4.48,3.24 9.87,6.36 16.24,9.48 6.37,3.12 13.51,6.3 21.51,9.62 10.98,4.61 20.79,9.42 29.49,14.55 8.71,5.13 16.18,10.98 22.42,17.41 6.17,6.5 10.98,13.9 14.29,22.22 3.31,8.32 4.94,17.93 4.94,28.98 0,15.27 -2.86,28 -8.64,38.39 -5.79,10.34 -13.65,18.72 -23.59,25.08 -9.87,6.43 -21.37,11.05 -34.56,13.84 -13.13,2.8 -27.03,4.16 -41.65,4.16 -14.94,0 -29.23,-1.3 -42.75,-3.83 -13.51,-2.54 -25.2,-6.31 -35.15,-11.37z" />
        <path class="fil1" d="M1660.94 342.76c0,81.92 -38.2,122.92 -114.54,122.92 -74.13,0 -111.16,-40.02 -111.16,-120.06l0 -157.49 61.59 0 0 158.33c0,44.12 17.22,66.2 51.72,66.2 33.84,0 50.8,-21.31 50.8,-63.93l0 -160.6 61.59 0 0 154.63z" />
        <polygon class="fil1" points="1882.82,465.68 1720.26,465.68 1720.26,192.81 1781.85,192.81 1781.85,415.78 1882.82,415.78 " />
        <polygon class="fil1" points="2076.35,242.7 1998.39,242.7 1998.39,465.68 1936.8,465.68 1936.8,242.7 1859.23,242.7 1859.23,192.81 2076.35,192.81 " />
        <path class="fil1" d="M2347.01 465.68l-70.56 0 -42.49 -70.23c-3.12,-5.33 -6.17,-10.07 -9.1,-14.3 -2.92,-4.15 -5.84,-7.73 -8.83,-10.72 -2.99,-2.98 -6.11,-5.26 -9.36,-6.82 -3.18,-1.62 -6.76,-2.4 -10.52,-2.4l-16.57 0 0 104.47 -61.59 0 0 -272.87 97.45 0c66.27,0 99.41,24.75 99.41,74.19 0,9.55 -1.43,18.32 -4.36,26.38 -2.92,8.06 -7.08,15.33 -12.41,21.77 -5.32,6.49 -11.76,12.08 -19.29,16.76 -7.54,4.67 -15.92,8.38 -25.21,11.04l0 0.78c4.09,1.24 7.99,3.32 11.82,6.17 3.77,2.86 7.48,6.18 11.05,10.01 3.51,3.77 6.95,7.86 10.13,12.28 3.25,4.35 6.24,8.64 8.91,12.8l51.52 80.69zm-167.43 -226.87l0 76.01 26.64 0c13.19,0 23.78,-3.83 31.77,-11.43 8.12,-7.73 12.15,-17.35 12.15,-28.79 0,-23.84 -14.3,-35.79 -42.82,-35.79l-27.74 0z" />
        <path class="fil1" d="M2632.58 465.68l-67.05 0 -19.1 -60.81 -97.65 0 -18.91 60.81 -66.66 0 99.34 -272.87 72.96 0 97.07 272.87zm-100.32 -107.98l-29.49 -91.61c-2.15,-6.88 -3.71,-15.07 -4.62,-24.56l-1.49 0c-0.65,8 -2.21,15.92 -4.81,23.78l-29.82 92.39 70.23 0z" />
        <path class="fil1" d="M274.95 717.05c7.1,-13.71 13.04,-24.68 17.87,-32.98l55.76 -95.01 29.39 0 -33.64 161.71 -19.69 0 17.75 -84.98c2.11,-9.99 4.29,-19.65 6.61,-29.06 2.31,-9.37 4.41,-17.62 6.35,-24.72l-1.07 0c-6.56,13.37 -14.94,28.68 -25.18,45.94l-55.84 92.82 -9.7 0 -17.04 -89.69c-3.22,-16.75 -5.99,-33.1 -8.34,-49.07l-1.07 0c-2.85,19.11 -5.74,35.95 -8.71,50.52l-18.16 88.24 -19.69 0 33.6 -161.71 27.32 0 18.16 98.52c2.1,11.35 3.71,21.17 4.83,29.47l0.49 0zm194.52 -55.39c-1.03,-1.49 -2.27,-2.97 -3.67,-4.5 -1.41,-1.57 -3.06,-2.97 -4.92,-4.21 -1.81,-1.28 -3.92,-2.27 -6.19,-3.05 -2.31,-0.79 -4.91,-1.16 -7.8,-1.16 -4.78,0 -9.08,1.03 -12.96,3.14 -3.88,2.1 -7.3,4.87 -10.27,8.29 -2.97,3.47 -5.57,7.39 -7.72,11.81 -2.19,4.45 -4,9.04 -5.41,13.78 -1.4,4.71 -2.43,9.37 -3.13,13.99 -0.71,4.59 -1.04,8.8 -1.04,12.59 0,5.08 0.46,9.29 1.41,12.59 0.91,3.3 2.18,5.9 3.79,7.8 1.61,1.9 3.47,3.26 5.58,4 2.1,0.79 4.25,1.16 6.52,1.16 3.96,0 7.96,-1.03 12.05,-3.09 4.04,-2.07 7.84,-5.04 11.39,-8.96 3.55,-3.92 6.77,-8.71 9.57,-14.41 2.81,-5.65 5,-12.13 6.53,-19.39l6.27 -30.38zm-13.54 70.2c-2.72,4.05 -5.65,7.43 -8.83,10.2 -3.14,2.81 -6.32,5.03 -9.53,6.77 -3.22,1.73 -6.44,3.01 -9.62,3.75 -3.18,0.79 -6.23,1.16 -9.12,1.16 -5,0 -9.45,-0.91 -13.29,-2.73 -3.88,-1.81 -7.14,-4.41 -9.83,-7.8 -2.64,-3.38 -4.66,-7.43 -6.02,-12.17 -1.36,-4.79 -2.06,-10.03 -2.06,-15.85 0,-6.52 0.57,-13.08 1.69,-19.65 1.11,-6.56 2.8,-12.91 5.03,-19.02 2.19,-6.11 4.96,-11.81 8.26,-17.09 3.3,-5.28 7.1,-9.9 11.39,-13.87 4.25,-3.92 9,-7.01 14.24,-9.28 5.24,-2.27 10.98,-3.39 17.17,-3.39 6.15,0 11.55,1.28 16.22,3.8 4.66,2.56 8.25,6.11 10.77,10.69l0.5 0 5.53 -11.52 15.23 0 -18.5 88.33c-0.57,3.09 -0.82,5.36 -0.82,6.89 0,1.94 0.54,3.34 1.61,4.25 1.11,0.87 3.01,1.32 5.74,1.32 2.27,0 4.91,-0.25 8,-0.74l-3.26 15.52c-3.38,0.7 -7.14,1.07 -11.27,1.07 -6.68,0 -11.51,-1.57 -14.48,-4.7 -3.01,-3.14 -4.42,-8.47 -4.25,-15.94l-0.5 0zm80.19 -96l18.74 0 -28.19 136.25c-1.28,6.19 -3.01,11.68 -5.12,16.38 -2.14,4.7 -4.91,8.67 -8.29,11.84 -3.38,3.18 -7.51,5.58 -12.34,7.19 -4.83,1.61 -10.57,2.43 -17.17,2.43 -3.88,0 -7.39,-0.29 -10.53,-0.87 -3.13,-0.53 -5.4,-1.07 -6.76,-1.56l3.13 -15.85c2.35,0.66 4.79,1.11 7.27,1.44 2.51,0.33 4.54,0.5 6.15,0.5 4.29,0 7.84,-0.5 10.73,-1.53 2.85,-0.99 5.24,-2.64 7.18,-4.95 1.94,-2.27 3.55,-5.28 4.83,-9 1.28,-3.71 2.52,-8.21 3.63,-13.54l26.74 -128.73zm5.08 -26.74l4.21 -20.8 19.73 0 -4.25 20.8 -19.69 0zm70.74 144.62c-6.93,0 -12.96,-0.87 -18.04,-2.6 -5.07,-1.74 -9.24,-4.13 -12.5,-7.18 -3.26,-3.06 -5.69,-6.69 -7.26,-10.9 -1.57,-4.17 -2.36,-8.75 -2.36,-13.66 0,-1.77 0.13,-3.59 0.33,-5.49 0.21,-1.9 0.54,-4 0.99,-6.36l14.9 -71.69 18.74 0 -14.61 70.58c-0.41,1.98 -0.74,3.92 -0.99,5.74 -0.25,1.81 -0.37,3.55 -0.37,5.24 0,3.09 0.41,5.9 1.24,8.42 0.78,2.56 2.06,4.7 3.79,6.48 1.74,1.77 4.01,3.13 6.77,4.13 2.77,0.94 6.15,1.44 10.11,1.44 5,0 9.33,-0.7 12.96,-2.11 3.68,-1.44 6.81,-3.46 9.37,-6.19 2.6,-2.68 4.71,-5.9 6.32,-9.61 1.61,-3.72 2.89,-7.89 3.88,-12.47l14.85 -71.65 18.74 0 -15.6 74.71c-0.95,4.7 -2.27,9.2 -3.92,13.54 -1.65,4.37 -3.75,8.33 -6.35,11.97 -3.88,5.32 -9.17,9.61 -15.85,12.83 -6.69,3.22 -15.07,4.83 -25.14,4.83zm222.95 -85.4c4.05,0.75 7.72,1.99 11.07,3.68 3.34,1.73 6.23,3.96 8.62,6.65 2.44,2.72 4.29,5.81 5.66,9.28 1.32,3.51 1.98,7.39 1.98,11.64 0,5.65 -0.99,11.02 -3.02,16.18 -2.02,5.16 -5.03,9.82 -9.03,14.07 -3.97,4.21 -8.96,7.88 -14.99,11.02 -5.98,3.14 -13.04,5.57 -21.09,7.27 -4.37,0.86 -8.99,1.52 -13.95,1.98 -4.99,0.45 -10.69,0.66 -17.13,0.66l-42.55 0 33.72 -161.71 37.85 0c4.75,0 9,0.12 12.75,0.42 3.76,0.28 7.56,0.86 11.44,1.77 4.74,1.11 9.07,2.8 13,5.03 3.92,2.19 7.26,4.87 10.03,7.97 2.8,3.1 4.95,6.6 6.48,10.52 1.52,3.92 2.31,8.17 2.31,12.8 0,10.73 -2.98,19.44 -8.84,26.12 -5.9,6.73 -13.99,11.44 -24.31,14.2l0 0.45zm-59.39 8.63l-11.72 55.97 22.12 0c5.49,0 10.16,-0.17 14.04,-0.5 3.88,-0.29 7.38,-0.82 10.52,-1.57 5.82,-1.28 10.69,-3.01 14.65,-5.28 3.92,-2.23 7.14,-4.79 9.58,-7.64 2.47,-2.84 4.25,-5.9 5.32,-9.16 1.12,-3.22 1.65,-6.52 1.65,-9.78 0,-4.91 -1.4,-9.12 -4.16,-12.59 -2.81,-3.5 -6.77,-6.02 -11.93,-7.63 -3.84,-1.2 -8.88,-1.82 -14.98,-1.82l-35.09 0zm14.66 -70.08l-10.9 52.25 29.51 0c5.49,0 10.56,-0.62 15.23,-1.81 4.66,-1.2 8.79,-3.1 12.3,-5.62 3.47,-2.55 6.23,-5.73 8.21,-9.57 1.98,-3.84 2.97,-8.3 2.97,-13.46 0,-5.24 -1.52,-9.57 -4.54,-12.92 -3.05,-3.34 -7.34,-5.73 -12.87,-7.18 -2.27,-0.66 -4.75,-1.07 -7.39,-1.32 -2.64,-0.25 -5.66,-0.37 -8.96,-0.37l-23.56 0zm195.63 55.68c0,7.18 -1.78,13.16 -5.33,17.99 -3.55,4.83 -8.66,8.75 -15.39,11.72 -6.73,3.02 -14.98,5.2 -24.72,6.61 -9.78,1.4 -20.89,2.27 -33.39,2.6 -0.09,0.91 -0.13,1.77 -0.17,2.68 -0.04,0.87 -0.08,1.86 -0.08,2.89 0,10.52 2.64,18.2 7.88,23.07 5.24,4.83 13.09,7.26 23.57,7.26 2.72,0 5.57,-0.16 8.5,-0.53 2.97,-0.33 5.9,-0.87 8.79,-1.53 2.89,-0.66 5.7,-1.44 8.38,-2.31 2.72,-0.83 5.16,-1.77 7.35,-2.81l-3.39 16.97c-4.13,1.81 -8.99,3.38 -14.57,4.66 -5.61,1.28 -11.68,1.9 -18.2,1.9 -8.25,0 -15.31,-1.12 -21.21,-3.39 -5.95,-2.27 -10.82,-5.4 -14.65,-9.49 -3.84,-4.04 -6.65,-8.91 -8.46,-14.48 -1.82,-5.62 -2.73,-11.77 -2.73,-18.45 0,-6.11 0.62,-12.22 1.82,-18.37 1.19,-6.11 3.01,-11.97 5.36,-17.5 2.4,-5.57 5.33,-10.73 8.83,-15.48 3.51,-4.74 7.56,-8.87 12.18,-12.38 4.58,-3.51 9.74,-6.27 15.4,-8.29 5.69,-2.03 11.84,-3.02 18.44,-3.02 4.75,0 9.29,0.58 13.62,1.74 4.3,1.19 8.09,2.97 11.39,5.44 3.35,2.44 5.95,5.54 7.89,9.29 1.94,3.76 2.89,8.13 2.89,13.21zm-75.32 22.08c8.87,0 16.79,-0.46 23.81,-1.32 7.02,-0.91 12.96,-2.23 17.79,-4.05 4.83,-1.81 8.54,-4.12 11.1,-7.01 2.6,-2.85 3.88,-6.32 3.88,-10.4 0,-1.74 -0.37,-3.35 -1.07,-4.96 -0.75,-1.56 -1.82,-2.97 -3.26,-4.16 -1.49,-1.2 -3.26,-2.19 -5.41,-2.94 -2.15,-0.7 -4.58,-1.07 -7.31,-1.07 -4.58,0 -8.95,0.83 -13.12,2.52 -4.13,1.69 -7.93,4.13 -11.35,7.26 -3.43,3.14 -6.44,6.94 -9.04,11.39 -2.56,4.42 -4.58,9.33 -6.02,14.74zm165.99 -32.69c-2.47,-0.33 -4.95,-0.49 -7.38,-0.49 -5.62,0 -10.7,0.94 -15.23,2.84 -4.5,1.9 -8.42,4.46 -11.73,7.72 -3.3,3.26 -6.02,7.06 -8.17,11.43 -2.1,4.42 -3.71,9.04 -4.74,13.95l-13.21 63.36 -18.74 0 23.94 -114.91 15.35 0 0 15.65 0.5 0c1.94,-2.56 4.08,-5 6.4,-7.27 2.35,-2.23 4.95,-4.21 7.88,-5.9 2.89,-1.69 6.07,-3.01 9.49,-4 3.43,-0.95 7.14,-1.45 11.19,-1.45 1.44,0 2.84,0.04 4.2,0.17 1.37,0.12 2.73,0.33 4.01,0.58l-3.76 18.32zm29.26 14.78c0,2.47 0.5,4.66 1.49,6.43 1.03,1.82 2.39,3.39 4.09,4.75 1.69,1.32 3.63,2.48 5.9,3.43 2.27,0.99 4.62,1.89 7.14,2.8 3.47,1.2 6.97,2.48 10.52,3.92 3.55,1.41 6.77,3.22 9.66,5.41 2.93,2.23 5.29,5.04 7.14,8.42 1.86,3.39 2.81,7.72 2.81,13.04 0,6.36 -1.2,11.97 -3.59,16.8 -2.4,4.83 -5.7,8.87 -9.91,12.14 -4.25,3.25 -9.29,5.73 -15.1,7.38 -5.86,1.65 -12.26,2.48 -19.19,2.48 -6.2,0 -12.47,-0.66 -18.78,-1.98 -6.36,-1.32 -11.31,-3.06 -14.94,-5.2l3.5 -15.6c4.25,1.81 8.92,3.46 13.95,4.82 5.04,1.41 10.49,2.11 16.27,2.11 6.31,0 11.35,-0.74 15.18,-2.23 3.84,-1.53 6.81,-3.34 8.96,-5.49 2.14,-2.14 3.55,-4.37 4.21,-6.73 0.7,-2.35 1.03,-4.37 1.03,-6.06 0,-3.14 -0.7,-5.78 -2.19,-7.89 -1.44,-2.06 -3.34,-3.83 -5.65,-5.28 -2.35,-1.48 -5,-2.72 -8.01,-3.84 -2.97,-1.07 -6.02,-2.18 -9.16,-3.3 -3.01,-1.15 -5.94,-2.39 -8.83,-3.8 -2.89,-1.44 -5.45,-3.17 -7.68,-5.2 -2.23,-2.06 -4,-4.62 -5.41,-7.63 -1.36,-3.01 -2.02,-6.69 -2.02,-11.06 0,-6.19 1.12,-11.56 3.39,-16.14 2.22,-4.54 5.28,-8.34 9.12,-11.35 3.84,-3.01 8.25,-5.28 13.25,-6.77 4.99,-1.48 10.27,-2.23 15.84,-2.23 3.31,0 6.57,0.21 9.79,0.66 3.22,0.42 6.31,0.99 9.28,1.74 3.02,0.7 5.82,1.52 8.42,2.43 2.6,0.91 4.95,1.9 6.93,2.93l-3.25 15.27c-4.83,-2.02 -9.79,-3.75 -14.9,-5.11 -5.12,-1.37 -10.24,-2.07 -15.32,-2.07 -3.88,0 -7.3,0.46 -10.27,1.4 -2.97,0.91 -5.49,2.19 -7.52,3.76 -2.02,1.57 -3.54,3.47 -4.58,5.65 -1.03,2.19 -1.57,4.59 -1.57,7.19zm154.41 -5.08c-1.04,-1.49 -2.27,-2.97 -3.68,-4.5 -1.4,-1.57 -3.05,-2.97 -4.91,-4.21 -1.81,-1.28 -3.92,-2.27 -6.19,-3.05 -2.31,-0.79 -4.91,-1.16 -7.8,-1.16 -4.79,0 -9.08,1.03 -12.96,3.14 -3.88,2.1 -7.3,4.87 -10.28,8.29 -2.97,3.47 -5.57,7.39 -7.71,11.81 -2.19,4.45 -4.01,9.04 -5.41,13.78 -1.4,4.71 -2.43,9.37 -3.14,13.99 -0.7,4.59 -1.03,8.8 -1.03,12.59 0,5.08 0.45,9.29 1.4,12.59 0.91,3.3 2.19,5.9 3.8,7.8 1.61,1.9 3.47,3.26 5.57,4 2.11,0.79 4.25,1.16 6.52,1.16 3.97,0 7.97,-1.03 12.05,-3.09 4.05,-2.07 7.85,-5.04 11.4,-8.96 3.55,-3.92 6.77,-8.71 9.57,-14.41 2.81,-5.65 5,-12.13 6.52,-19.39l6.28 -30.38zm-13.54 70.2c-2.73,4.05 -5.66,7.43 -8.83,10.2 -3.14,2.81 -6.32,5.03 -9.54,6.77 -3.22,1.73 -6.44,3.01 -9.61,3.75 -3.18,0.79 -6.24,1.16 -9.12,1.16 -5,0 -9.46,-0.91 -13.3,-2.73 -3.87,-1.81 -7.13,-4.41 -9.82,-7.8 -2.64,-3.38 -4.66,-7.43 -6.02,-12.17 -1.36,-4.79 -2.07,-10.03 -2.07,-15.85 0,-6.52 0.58,-13.08 1.7,-19.65 1.11,-6.56 2.8,-12.91 5.03,-19.02 2.19,-6.11 4.95,-11.81 8.25,-17.09 3.31,-5.28 7.1,-9.9 11.4,-13.87 4.25,-3.92 8.99,-7.01 14.24,-9.28 5.24,-2.27 10.97,-3.39 17.16,-3.39 6.15,0 11.56,1.28 16.22,3.8 4.67,2.56 8.26,6.11 10.78,10.69l0.49 0 5.53 -11.52 15.23 0 -18.49 88.33c-0.58,3.09 -0.82,5.36 -0.82,6.89 0,1.94 0.53,3.34 1.61,4.25 1.11,0.87 3.01,1.32 5.73,1.32 2.27,0 4.91,-0.25 8.01,-0.74l-3.26 15.52c-3.39,0.7 -7.14,1.07 -11.27,1.07 -6.68,0 -11.51,-1.57 -14.48,-4.7 -3.02,-3.14 -4.42,-8.47 -4.26,-15.94l-0.49 0zm159.02 -75.4c2.89,-4.17 6.03,-7.76 9.41,-10.77 3.39,-2.97 6.89,-5.41 10.48,-7.31 3.59,-1.9 7.18,-3.26 10.82,-4.17 3.63,-0.86 7.18,-1.32 10.65,-1.32 4.17,0 8.09,0.62 11.63,1.86 3.6,1.28 6.69,3.05 9.29,5.41 2.56,2.31 4.58,5.24 6.11,8.71 1.49,3.46 2.23,7.38 2.23,11.84 0,3.14 -0.29,6.48 -0.79,10.03 -0.53,3.55 -1.19,7.18 -2.02,10.85l-14.36 69.18 -18.74 0 15.11 -73.1c0.62,-3.13 1.07,-5.78 1.28,-7.88 0.16,-2.1 0.29,-3.76 0.29,-4.95 0,-5.49 -1.41,-9.58 -4.26,-12.22 -2.8,-2.68 -6.52,-3.96 -11.1,-3.88 -4.54,0 -8.91,0.99 -13.21,2.97 -4.25,1.98 -8.17,4.71 -11.72,8.17 -3.55,3.47 -6.56,7.56 -9.12,12.22 -2.52,4.67 -4.37,9.74 -5.49,15.23l-13.16 63.44 -18.78 0 15.14 -73.01c0.62,-3.14 1.04,-5.78 1.24,-7.89 0.21,-2.06 0.33,-3.71 0.33,-4.95 -0.08,-5.82 -1.57,-9.99 -4.41,-12.47 -2.89,-2.47 -6.52,-3.71 -10.94,-3.71 -4.54,0 -8.91,0.99 -13.21,2.97 -4.25,1.98 -8.17,4.71 -11.64,8.17 -3.5,3.47 -6.56,7.56 -9.16,12.22 -2.56,4.67 -4.41,9.74 -5.53,15.23l-13.21 63.44 -18.73 0 23.93 -114.91 15.36 0 0 15.65 0.49 0c4.91,-5.95 10.61,-10.57 17.05,-13.79 6.44,-3.22 13.25,-4.83 20.43,-4.83 3.79,0 7.26,0.5 10.48,1.53 3.18,0.99 5.99,2.52 8.46,4.5 2.44,2.02 4.46,4.5 5.99,7.39 1.52,2.89 2.47,6.27 2.89,10.15l0.49 0zm173.59 5.2c-1.03,-1.49 -2.27,-2.97 -3.67,-4.5 -1.4,-1.57 -3.05,-2.97 -4.91,-4.21 -1.82,-1.28 -3.92,-2.27 -6.19,-3.05 -2.31,-0.79 -4.91,-1.16 -7.8,-1.16 -4.79,0 -9.08,1.03 -12.96,3.14 -3.88,2.1 -7.31,4.87 -10.28,8.29 -2.97,3.47 -5.57,7.39 -7.72,11.81 -2.18,4.45 -4,9.04 -5.4,13.78 -1.41,4.71 -2.44,9.37 -3.14,13.99 -0.7,4.59 -1.03,8.8 -1.03,12.59 0,5.08 0.45,9.29 1.4,12.59 0.91,3.3 2.19,5.9 3.8,7.8 1.61,1.9 3.47,3.26 5.57,4 2.1,0.79 4.25,1.16 6.52,1.16 3.96,0 7.97,-1.03 12.05,-3.09 4.05,-2.07 7.84,-5.04 11.39,-8.96 3.55,-3.92 6.77,-8.71 9.58,-14.41 2.8,-5.65 4.99,-12.13 6.52,-19.39l6.27 -30.38zm-13.53 70.2c-2.73,4.05 -5.66,7.43 -8.84,10.2 -3.13,2.81 -6.31,5.03 -9.53,6.77 -3.22,1.73 -6.44,3.01 -9.62,3.75 -3.17,0.79 -6.23,1.16 -9.12,1.16 -4.99,0 -9.45,-0.91 -13.29,-2.73 -3.88,-1.81 -7.14,-4.41 -9.82,-7.8 -2.64,-3.38 -4.66,-7.43 -6.03,-12.17 -1.36,-4.79 -2.06,-10.03 -2.06,-15.85 0,-6.52 0.58,-13.08 1.69,-19.65 1.12,-6.56 2.81,-12.91 5.04,-19.02 2.19,-6.11 4.95,-11.81 8.25,-17.09 3.3,-5.28 7.1,-9.9 11.39,-13.87 4.26,-3.92 9,-7.01 14.24,-9.28 5.24,-2.27 10.98,-3.39 17.17,-3.39 6.15,0 11.56,1.28 16.22,3.8 4.67,2.56 8.26,6.11 10.77,10.69l0.5 0 5.53 -11.52 15.23 0 -18.49 88.33c-0.58,3.09 -0.83,5.36 -0.83,6.89 0,1.94 0.54,3.34 1.61,4.25 1.12,0.87 3.02,1.32 5.74,1.32 2.27,0 4.91,-0.25 8.01,-0.74l-3.26 15.52c-3.39,0.7 -7.14,1.07 -11.27,1.07 -6.69,0 -11.52,-1.57 -14.49,-4.7 -3.01,-3.14 -4.41,-8.47 -4.25,-15.94l-0.49 0z" />
        <path class="fil2" d="M2249.36 896.42c304.67,-278.7 646.03,-439.47 1024.09,-482.29 -502.85,-5.23 -956.53,155.53 -1361.04,482.29l336.95 0z" />
    </g>
</svg>